<svg id="svg" version="1.1" xmlns="http://www.w3.org/2000/svg" xmlns:xlink="http://www.w3.org/1999/xlink" width="400" height="207.86026200873363" viewBox="0, 0, 400,207.86026200873363"><g id="svgg"><path id="path0" d="M63.929 56.118 C 63.243 56.199,62.401 56.422,62.058 56.614 C 61.715 56.805,61.261 56.963,61.049 56.963 C 60.837 56.964,60.369 57.198,60.009 57.483 C 59.650 57.767,59.139 58.165,58.875 58.366 C 57.284 59.576,56.135 62.413,56.134 65.136 C 56.133 66.947,56.213 67.237,57.210 69.023 C 57.305 69.194,57.498 69.569,57.639 69.854 C 57.780 70.140,58.144 70.630,58.449 70.942 L 59.004 71.510 60.011 70.353 C 60.565 69.717,61.166 69.057,61.347 68.886 C 61.645 68.604,61.611 68.448,60.983 67.200 C 59.761 64.770,60.816 60.915,62.703 60.915 C 62.874 60.915,63.305 60.765,63.660 60.581 C 64.452 60.172,66.509 60.166,67.309 60.570 C 67.623 60.729,68.213 60.919,68.620 60.993 C 72.640 61.720,73.011 69.345,69.216 73.247 C 67.444 75.069,67.483 75.160,67.344 68.798 C 67.279 65.777,67.208 63.282,67.188 63.254 C 66.929 62.884,63.234 63.262,63.125 63.669 C 63.056 63.927,62.998 69.662,62.997 76.414 C 62.993 90.227,63.136 89.188,61.237 89.192 C 60.526 89.194,59.753 89.326,59.459 89.495 C 59.174 89.660,58.733 89.889,58.480 90.004 C 56.443 90.928,55.459 94.351,56.611 96.507 C 57.091 97.405,58.034 98.545,58.296 98.545 C 58.374 98.545,58.722 98.755,59.070 99.012 C 59.956 99.668,63.109 99.643,63.959 98.975 C 64.259 98.738,64.609 98.544,64.737 98.544 C 64.998 98.543,66.320 97.358,66.320 97.125 C 66.320 95.861,68.295 95.533,69.892 96.530 C 70.157 96.696,70.833 96.890,71.393 96.961 C 71.953 97.032,72.549 97.204,72.717 97.344 C 73.951 98.368,80.385 97.057,82.564 95.338 C 82.865 95.101,83.400 94.676,83.752 94.395 C 84.105 94.113,84.501 93.622,84.634 93.303 C 84.766 92.984,84.950 92.723,85.042 92.723 C 85.135 92.723,85.267 92.547,85.335 92.332 C 85.403 92.117,85.644 91.729,85.869 91.469 C 86.094 91.209,86.279 90.825,86.279 90.615 C 86.279 90.405,86.466 89.741,86.694 89.139 C 87.636 86.662,87.138 81.116,85.803 79.210 C 85.607 78.931,85.445 78.606,85.443 78.488 C 85.433 77.894,82.505 74.428,82.014 74.428 C 81.875 74.428,81.523 74.241,81.232 74.012 C 80.942 73.784,80.554 73.597,80.371 73.597 C 80.187 73.597,79.881 73.414,79.690 73.191 C 79.457 72.919,78.962 72.744,78.185 72.660 C 75.596 72.381,75.354 72.118,75.793 70.062 C 76.346 67.469,76.149 63.644,75.405 62.507 C 75.241 62.257,75.041 61.754,74.961 61.389 C 74.809 60.696,72.303 57.796,71.856 57.796 C 71.721 57.796,71.381 57.636,71.102 57.440 C 69.663 56.432,66.383 55.828,63.929 56.118 M115.884 56.098 C 115.187 56.175,114.485 56.343,114.325 56.473 C 114.164 56.603,113.706 56.779,113.306 56.864 C 112.905 56.950,112.081 57.312,111.474 57.668 C 110.868 58.024,110.135 58.442,109.846 58.596 C 109.270 58.902,104.990 63.183,104.990 63.453 C 104.990 63.545,104.433 64.601,103.752 65.800 C 103.071 66.999,102.451 68.332,102.374 68.761 C 101.960 71.061,101.188 71.269,99.498 69.538 C 98.149 68.155,97.708 68.018,96.881 68.724 C 96.710 68.871,96.321 69.052,96.018 69.128 C 95.714 69.204,95.265 69.480,95.019 69.741 L 94.572 70.217 95.209 71.160 C 95.865 72.132,98.118 74.220,98.511 74.220 C 98.632 74.220,98.807 74.337,98.898 74.481 C 98.990 74.624,99.311 74.868,99.613 75.023 C 100.526 75.493,100.624 76.020,100.624 80.472 C 100.624 84.093,100.677 84.778,101.040 85.809 C 101.268 86.459,101.455 87.324,101.455 87.730 C 101.455 88.136,101.630 88.794,101.843 89.192 C 102.057 89.591,102.297 90.214,102.376 90.578 C 102.456 90.942,102.650 91.346,102.807 91.476 C 102.963 91.606,103.154 91.996,103.230 92.343 C 103.306 92.690,103.523 93.145,103.711 93.355 C 103.900 93.565,104.241 93.995,104.470 94.312 C 104.831 94.811,105.492 95.484,107.402 97.298 C 107.643 97.526,108.026 97.713,108.254 97.713 C 108.481 97.713,108.833 97.896,109.035 98.120 C 109.244 98.350,109.821 98.588,110.367 98.668 C 110.897 98.746,111.515 98.937,111.741 99.093 C 112.320 99.493,117.205 99.492,117.781 99.091 C 118.007 98.934,118.519 98.735,118.919 98.650 C 121.707 98.051,126.525 93.696,127.342 91.034 C 127.425 90.763,127.571 90.443,127.666 90.324 C 128.862 88.817,129.926 81.681,129.430 78.482 C 129.253 77.339,129.107 75.982,129.106 75.468 C 129.105 74.953,128.968 74.273,128.802 73.955 C 128.637 73.638,128.404 72.853,128.286 72.211 C 128.167 71.570,127.975 70.931,127.859 70.791 C 127.247 70.053,127.043 68.570,127.333 66.963 C 127.489 66.095,127.674 64.962,127.744 64.445 C 127.896 63.308,127.371 60.370,126.927 59.880 C 126.753 59.688,126.611 59.463,126.611 59.380 C 126.611 59.134,125.484 57.796,125.276 57.796 C 125.171 57.796,124.914 57.642,124.705 57.453 C 123.434 56.303,119.515 55.701,115.884 56.098 M158.316 56.126 C 156.822 56.367,153.169 57.758,152.807 58.224 C 152.749 58.298,152.469 58.478,152.183 58.626 C 151.512 58.971,150.616 59.813,148.435 62.146 C 147.888 62.731,146.546 64.782,146.112 65.696 C 145.977 65.982,145.752 66.357,145.613 66.528 C 145.474 66.700,145.249 67.258,145.113 67.769 C 144.977 68.281,144.735 68.886,144.574 69.115 C 144.414 69.344,144.283 69.733,144.283 69.979 C 144.283 71.261,143.235 71.086,141.851 69.574 C 140.561 68.164,140.334 68.092,139.157 68.717 C 138.626 69.000,138.068 69.231,137.916 69.231 C 137.439 69.231,137.006 70.315,137.285 70.810 C 137.712 71.568,139.731 73.643,140.466 74.079 C 143.010 75.590,143.123 75.819,142.839 78.867 C 142.703 80.327,142.692 81.457,142.809 81.830 C 142.914 82.161,143.111 83.447,143.248 84.688 C 143.385 85.929,143.674 87.447,143.890 88.061 C 144.106 88.676,144.283 89.326,144.283 89.507 C 144.283 89.687,144.457 90.180,144.671 90.603 C 145.976 93.191,146.297 93.751,146.959 94.595 C 147.362 95.109,148.024 95.830,148.430 96.197 C 148.836 96.563,149.316 97.007,149.496 97.182 C 149.676 97.358,150.120 97.605,150.483 97.732 C 150.846 97.858,151.143 98.042,151.143 98.141 C 151.143 98.240,151.541 98.418,152.027 98.537 C 152.513 98.656,153.355 98.903,153.898 99.086 C 155.250 99.541,159.885 99.413,160.811 98.896 C 161.154 98.704,161.575 98.540,161.746 98.532 C 162.041 98.518,162.998 97.996,164.690 96.927 C 165.528 96.398,168.012 93.693,168.837 92.412 C 169.845 90.846,170.062 90.451,170.064 90.184 C 170.065 90.037,170.296 89.449,170.578 88.877 C 170.859 88.306,171.092 87.582,171.095 87.270 C 171.099 86.958,171.264 86.303,171.463 85.815 C 172.329 83.683,171.733 74.281,170.595 72.141 C 170.443 71.856,170.250 71.294,170.167 70.894 C 170.084 70.494,169.867 69.998,169.685 69.791 C 169.257 69.306,169.285 67.428,169.734 66.560 C 170.504 65.071,170.104 61.184,169.002 59.459 C 168.893 59.288,168.642 58.892,168.445 58.580 C 168.248 58.268,167.830 57.906,167.516 57.775 C 167.201 57.645,166.944 57.468,166.944 57.382 C 166.944 56.534,161.085 55.681,158.316 56.126 M191.585 56.185 C 191.538 56.328,191.459 63.649,191.410 72.453 C 191.302 92.081,191.149 93.312,188.634 94.796 C 185.209 96.817,181.493 92.387,184.269 89.593 C 185.233 88.623,185.304 87.566,184.485 86.388 C 184.328 86.163,184.200 85.817,184.200 85.621 C 184.200 84.653,182.541 85.290,181.087 86.816 C 177.499 90.581,178.830 96.807,183.680 98.943 C 185.241 99.631,189.647 99.558,190.247 98.834 C 190.379 98.675,190.575 98.545,190.682 98.545 C 191.737 98.545,194.550 94.551,194.581 93.010 C 194.589 92.652,194.744 91.951,194.926 91.450 C 195.216 90.655,195.557 85.255,195.623 80.395 C 195.633 79.695,195.716 79.570,196.348 79.306 C 196.740 79.143,197.115 78.921,197.182 78.813 C 197.248 78.706,197.601 78.553,197.967 78.472 C 198.333 78.392,198.893 78.151,199.212 77.936 C 199.531 77.722,200.069 77.360,200.407 77.131 C 201.609 76.319,202.557 76.669,204.339 78.582 C 204.817 79.095,205.299 79.856,205.412 80.273 C 205.524 80.691,205.756 81.149,205.927 81.290 C 206.097 81.432,206.237 81.861,206.237 82.243 C 206.237 82.625,206.373 83.339,206.540 83.830 C 206.719 84.358,206.922 86.245,207.037 88.463 C 207.178 91.200,207.320 92.371,207.564 92.827 C 207.748 93.170,207.900 93.685,207.902 93.971 C 207.904 94.257,208.040 94.725,208.203 95.010 C 208.366 95.296,208.632 95.811,208.794 96.154 C 209.153 96.911,211.605 99.376,212.000 99.376 C 212.155 99.376,212.657 99.567,213.115 99.801 C 213.782 100.141,214.263 100.213,215.549 100.165 L 217.152 100.104 217.221 99.272 C 217.261 98.795,217.153 98.175,216.967 97.817 C 216.789 97.474,216.554 96.949,216.446 96.651 C 216.292 96.228,216.064 96.079,215.411 95.974 C 213.913 95.735,212.061 94.164,212.057 93.128 C 212.056 92.963,211.902 92.547,211.715 92.204 C 211.463 91.744,211.332 90.708,211.215 88.254 C 211.054 84.887,210.388 80.764,209.872 79.947 C 209.725 79.713,209.539 79.208,209.459 78.825 C 209.379 78.442,209.180 77.974,209.017 77.785 C 207.896 76.487,207.692 76.212,207.692 75.993 C 207.692 75.765,207.174 75.284,205.769 74.211 C 204.949 73.584,205.046 73.021,206.289 71.205 C 206.889 70.328,207.478 69.441,207.596 69.235 C 207.715 69.028,207.917 68.732,208.044 68.577 C 208.436 68.100,210.395 64.240,210.395 63.946 C 210.395 63.793,210.529 63.557,210.693 63.421 C 210.858 63.284,211.055 62.875,211.131 62.512 C 211.208 62.148,211.396 61.570,211.549 61.227 C 211.979 60.267,212.681 58.209,212.924 57.199 C 213.210 56.008,213.040 55.909,210.817 55.976 L 209.056 56.029 208.604 56.835 C 208.356 57.278,208.098 57.980,208.032 58.394 C 207.965 58.809,207.721 59.518,207.489 59.971 C 207.258 60.424,207.069 60.910,207.069 61.052 C 207.069 61.336,206.284 62.871,205.748 63.636 C 205.560 63.905,205.405 64.279,205.405 64.467 C 205.405 64.655,205.231 65.032,205.018 65.305 C 204.805 65.577,204.562 66.021,204.478 66.290 C 204.330 66.760,203.708 67.767,203.170 68.406 C 203.029 68.574,202.496 69.238,201.984 69.883 C 200.974 71.157,198.371 73.597,198.022 73.597 C 197.903 73.597,197.640 73.789,197.439 74.025 C 197.179 74.328,196.877 74.434,196.405 74.389 L 195.738 74.324 195.684 65.403 C 195.646 59.239,195.558 56.396,195.398 56.204 C 195.085 55.826,191.709 55.810,191.585 56.185 M224.658 56.254 C 224.492 56.688,224.494 96.017,224.661 96.850 C 224.918 98.137,227.384 98.971,229.730 98.565 C 232.075 98.159,235.694 98.429,236.739 99.086 C 236.992 99.246,237.349 99.376,237.532 99.376 C 238.004 99.376,240.040 100.368,241.122 101.125 C 241.626 101.478,242.193 101.860,242.381 101.975 C 244.143 103.042,244.699 103.418,244.699 103.545 C 244.699 103.627,244.862 103.750,245.062 103.819 C 245.262 103.887,245.941 104.319,246.570 104.778 C 247.199 105.237,247.784 105.613,247.871 105.613 C 247.958 105.613,248.489 105.937,249.052 106.332 C 249.614 106.727,250.397 107.185,250.791 107.350 C 251.186 107.515,251.572 107.753,251.650 107.879 C 251.728 108.005,251.961 108.108,252.167 108.108 C 252.374 108.108,252.766 108.283,253.038 108.497 C 253.311 108.711,253.862 108.954,254.262 109.037 C 254.662 109.120,255.194 109.318,255.445 109.476 C 256.921 110.411,265.039 110.405,266.112 109.469 C 266.284 109.319,266.658 109.127,266.944 109.043 C 267.230 108.958,267.591 108.787,267.746 108.663 C 267.901 108.538,268.228 108.333,268.473 108.207 C 269.048 107.912,268.978 107.219,268.293 106.405 C 268.009 106.066,267.775 105.708,267.775 105.608 C 267.775 104.951,266.777 104.362,266.188 104.671 C 264.135 105.750,263.622 105.865,260.813 105.870 C 258.471 105.874,257.938 105.811,257.080 105.432 C 256.530 105.189,255.975 104.990,255.847 104.990 C 255.718 104.990,255.099 104.706,254.470 104.359 C 253.841 104.013,252.952 103.541,252.495 103.310 C 250.642 102.376,250.171 102.098,249.910 101.784 C 249.760 101.603,249.539 101.455,249.419 101.455 C 249.299 101.455,249.029 101.300,248.820 101.110 C 248.610 100.920,248.269 100.663,248.063 100.538 C 246.752 99.748,246.154 99.312,246.154 99.148 C 246.154 99.045,246.037 98.959,245.894 98.957 C 245.751 98.955,245.213 98.673,244.699 98.330 C 244.184 97.987,243.623 97.617,243.451 97.506 C 243.280 97.395,242.784 97.069,242.350 96.781 C 241.917 96.493,241.402 96.257,241.207 96.257 C 241.012 96.257,240.564 96.080,240.211 95.865 C 239.859 95.650,239.281 95.411,238.926 95.333 C 238.572 95.255,238.178 95.066,238.051 94.913 C 237.922 94.757,237.162 94.574,236.322 94.497 C 235.498 94.420,234.543 94.272,234.200 94.166 C 233.364 93.909,232.771 93.903,231.289 94.139 C 230.046 94.337,229.408 94.206,229.057 93.680 C 228.973 93.554,228.903 85.120,228.901 74.938 C 228.899 60.819,228.839 56.365,228.649 56.175 C 228.245 55.771,224.818 55.839,224.658 56.254 M257.277 56.057 C 255.024 56.409,252.571 58.022,251.629 59.771 C 251.445 60.114,251.217 60.445,251.124 60.505 C 250.766 60.738,250.487 64.376,250.707 65.952 C 250.899 67.338,251.564 68.964,252.278 69.795 C 252.397 69.934,252.615 70.192,252.763 70.367 C 253.220 70.911,253.741 70.723,254.470 69.751 C 254.855 69.236,255.232 68.815,255.307 68.815 C 255.943 68.815,255.918 67.186,255.268 66.344 C 254.185 64.941,255.194 60.915,256.629 60.915 C 257.607 60.915,257.583 60.465,257.639 80.373 L 257.692 99.272 269.810 99.326 L 281.928 99.380 281.868 97.351 L 281.809 95.322 271.935 95.218 L 262.062 95.114 261.929 94.491 C 261.688 93.363,261.728 80.156,261.975 79.449 L 262.203 78.794 265.807 78.794 C 270.621 78.794,270.478 78.864,270.478 76.535 C 270.478 74.261,270.834 74.428,265.999 74.428 C 261.224 74.428,261.707 75.252,261.787 67.256 C 261.858 60.131,261.863 60.110,263.208 60.507 C 263.605 60.624,264.865 60.854,266.008 61.017 C 267.152 61.180,268.783 61.418,269.633 61.546 C 272.629 61.997,279.059 61.393,281.289 60.452 C 281.689 60.283,282.183 60.086,282.387 60.014 C 282.737 59.891,282.734 59.839,282.335 59.056 C 282.103 58.601,281.913 58.006,281.913 57.733 C 281.913 56.571,280.607 55.802,279.706 56.433 C 279.309 56.711,275.869 57.287,273.181 57.526 C 272.552 57.582,271.336 57.521,270.478 57.390 C 269.621 57.259,267.937 57.027,266.736 56.873 C 265.535 56.720,264.304 56.496,264.000 56.376 C 263.403 56.140,258.297 55.898,257.277 56.057 M295.845 56.561 C 295.447 56.783,294.994 56.965,294.839 56.965 C 294.683 56.965,294.318 57.152,294.028 57.380 C 293.737 57.609,293.379 57.796,293.233 57.796 C 292.879 57.796,291.414 59.477,290.721 60.680 C 289.850 62.191,289.736 66.160,290.517 67.810 C 290.816 68.442,291.060 69.058,291.060 69.180 C 291.060 69.772,292.976 71.387,293.196 70.980 C 293.314 70.761,293.828 70.130,294.338 69.578 C 295.387 68.443,295.451 67.523,294.565 66.325 C 293.603 65.024,294.437 61.653,295.842 61.159 C 296.128 61.059,296.689 60.856,297.089 60.708 C 298.278 60.269,299.514 60.228,301.102 60.574 C 301.925 60.753,302.947 60.954,303.372 61.020 C 304.894 61.255,304.782 59.721,304.782 80.351 C 304.782 90.568,304.838 99.074,304.908 99.255 C 305.011 99.523,305.398 99.584,306.987 99.584 L 308.940 99.584 308.940 81.171 C 308.940 68.877,309.011 62.625,309.155 62.356 C 309.352 61.988,309.626 61.953,312.429 61.939 C 315.405 61.924,316.454 61.821,318.607 61.329 C 320.720 60.847,321.176 60.693,321.653 60.304 L 322.141 59.906 321.677 59.007 C 321.422 58.513,321.188 57.877,321.157 57.594 C 321.044 56.538,320.406 56.490,317.152 57.289 C 314.796 57.868,310.513 57.928,307.891 57.419 C 306.695 57.187,305.016 56.934,304.158 56.856 C 303.300 56.779,302.037 56.586,301.351 56.427 C 299.479 55.995,296.742 56.061,295.845 56.561 M121.878 60.737 C 123.129 61.367,123.390 61.957,123.378 64.128 C 123.352 68.852,118.580 73.149,112.805 73.650 C 110.443 73.856,106.623 73.652,106.036 73.289 C 105.771 73.125,105.750 71.794,106.011 71.633 C 106.115 71.568,106.267 71.118,106.348 70.633 C 106.430 70.148,106.664 69.423,106.869 69.023 C 107.074 68.623,107.348 68.061,107.477 67.775 C 109.215 63.936,112.070 61.629,116.736 60.293 C 117.734 60.007,120.988 60.288,121.878 60.737 M164.357 60.831 C 167.971 62.939,165.260 69.321,159.434 72.418 C 155.953 74.268,148.225 74.332,148.238 72.510 C 148.247 71.314,149.098 68.615,149.723 67.799 C 149.933 67.527,150.104 67.227,150.104 67.134 C 150.104 66.560,152.686 63.529,154.144 62.393 C 154.659 61.991,156.319 61.159,157.069 60.926 C 157.412 60.819,158.067 60.586,158.524 60.407 C 159.785 59.914,163.211 60.163,164.357 60.831 M124.224 74.237 C 124.298 74.573,124.514 75.151,124.705 75.522 C 125.230 76.542,125.217 84.562,124.688 85.732 C 124.488 86.175,124.324 86.680,124.324 86.854 C 124.324 87.149,123.178 89.606,122.605 90.541 C 122.092 91.376,120.124 93.555,119.883 93.555 C 119.747 93.555,119.404 93.718,119.121 93.918 C 115.469 96.495,108.992 94.822,107.334 90.874 C 107.171 90.486,106.904 90.035,106.741 89.872 C 106.578 89.709,106.445 89.429,106.445 89.251 C 106.445 89.072,106.268 88.635,106.051 88.278 C 105.834 87.922,105.594 87.209,105.516 86.694 C 105.438 86.180,105.238 85.385,105.071 84.927 C 104.844 84.304,104.782 83.313,104.827 80.977 L 104.886 77.859 106.341 77.882 C 107.141 77.894,108.585 77.993,109.550 78.100 C 112.451 78.424,118.183 77.280,119.722 76.069 C 119.997 75.853,120.327 75.671,120.454 75.666 C 120.582 75.661,121.341 75.109,122.141 74.440 C 123.697 73.141,123.977 73.114,124.224 74.237 M166.694 74.168 C 166.812 74.483,166.965 75.344,167.032 76.082 C 167.099 76.821,167.247 77.518,167.361 77.631 C 167.703 77.973,167.619 83.379,167.256 84.407 C 167.084 84.894,166.944 85.586,166.944 85.947 C 166.944 88.539,162.040 94.595,159.942 94.595 C 159.720 94.595,159.357 94.732,159.135 94.900 C 158.094 95.687,154.246 95.093,152.510 93.877 C 151.609 93.246,150.104 91.787,150.104 91.544 C 150.104 91.428,149.917 91.163,149.688 90.956 C 149.459 90.749,149.272 90.487,149.272 90.373 C 149.272 90.259,149.046 89.689,148.769 89.106 C 147.681 86.814,147.397 85.400,147.260 81.603 C 147.105 77.332,147.082 77.374,149.320 77.762 C 152.786 78.364,153.715 78.393,155.745 77.964 C 156.816 77.738,157.973 77.549,158.316 77.543 C 158.659 77.537,159.314 77.352,159.771 77.131 C 160.229 76.910,160.713 76.726,160.848 76.722 C 161.195 76.712,162.365 75.959,163.990 74.698 C 165.620 73.435,166.362 73.289,166.694 74.168 M78.482 77.355 C 82.847 79.885,84.504 86.406,81.690 89.983 C 81.469 90.263,81.287 90.597,81.285 90.725 C 81.271 91.667,77.441 93.347,75.306 93.347 C 74.139 93.347,71.504 92.719,70.582 92.221 C 70.239 92.035,69.725 91.788,69.439 91.671 C 68.789 91.405,68.128 91.023,67.694 90.663 C 67.404 90.423,67.360 89.737,67.360 85.550 L 67.360 80.714 68.180 80.014 C 69.444 78.936,70.212 78.378,70.434 78.378 C 70.544 78.378,70.748 78.243,70.885 78.077 C 72.172 76.527,76.366 76.128,78.482 77.355 M62.778 93.546 C 63.624 94.081,62.028 95.703,61.129 95.222 C 60.603 94.940,60.369 94.066,60.709 93.656 C 60.993 93.314,62.301 93.244,62.778 93.546 " stroke="none" fill="#501250" fill-rule="evenodd"></path></g></svg>